HIERARCHY
ROOT hip
{
  OFFSET 2.17888 83.8451 40.6215
  CHANNELS 6 Xposition Yposition Zposition Zrotation Xrotation Yrotation
  JOINT abdomen
  {
    OFFSET 0 20.6881 -0.73152
    CHANNELS 3 Zrotation Xrotation Yrotation
    JOINT chest
    {
      OFFSET 0 11.7043 -0.48768
      CHANNELS 3 Zrotation Xrotation Yrotation
      JOINT neck
      {
        OFFSET 0 22.1894 -2.19456
        CHANNELS 3 Zrotation Xrotation Yrotation
        JOINT head
        {
          OFFSET -0.24384 7.07133 1.2192
          CHANNELS 3 Zrotation Xrotation Yrotation
          JOINT leftEye
          {
            OFFSET 4.14528 8.04674 8.04672
            CHANNELS 3 Zrotation Xrotation Yrotation
            End Site
            {
              OFFSET 1 0 0
            }
          }
          JOINT rightEye
          {
            OFFSET -3.6576 8.04674 8.04672
            CHANNELS 3 Zrotation Xrotation Yrotation
            End Site
            {
              OFFSET 1 0 0
            }
          }
        }
      }
      JOINT rCollar
      {
        OFFSET -2.68224 19.2634 -4.8768
        CHANNELS 3 Zrotation Xrotation Yrotation
        JOINT rShldr
        {
          OFFSET -8.77824 -1.95073 1.46304
          CHANNELS 3 Zrotation Xrotation Yrotation
          JOINT rForeArm
          {
            OFFSET -28.1742 -1.7115 0.48768
            CHANNELS 3 Zrotation Xrotation Yrotation
            JOINT rHand
            {
              OFFSET -22.5879 0.773209 7.07136
              CHANNELS 3 Zrotation Xrotation Yrotation
              JOINT rThumb1
              {
                OFFSET -1.2192 -0.487915 3.41376
                CHANNELS 3 Zrotation Xrotation Yrotation
                JOINT rThumb2
                {
                  OFFSET -3.37035 -0.52449 3.41376
                  CHANNELS 3 Zrotation Xrotation Yrotation
                  End Site
                  {
                    OFFSET -1.78271 -1.18214 1.43049
                  }
                }
              }
              JOINT rIndex1
              {
                OFFSET -7.75947 0.938293 5.60832
                CHANNELS 3 Zrotation Xrotation Yrotation
                JOINT rIndex2
                {
                  OFFSET -2.54057 -0.884171 1.56538
                  CHANNELS 3 Zrotation Xrotation Yrotation
                  End Site
                  {
                    OFFSET -1.62519 -0.234802 1.16502
                  }
                }
              }
              JOINT rMid1
              {
                OFFSET -8.24714 1.18213 3.41376
                CHANNELS 3 Zrotation Xrotation Yrotation
                JOINT rMid2
                {
                  OFFSET -3.10165 -0.590103 1.0647
                  CHANNELS 3 Zrotation Xrotation Yrotation
                  End Site
                  {
                    OFFSET -2.48547 -0.328903 0.83742
                  }
                }
              }
              JOINT rRing1
              {
                OFFSET -8.82822 0.546677 1.51678
                CHANNELS 3 Zrotation Xrotation Yrotation
                JOINT rRing2
                {
                  OFFSET -2.60934 -0.819778 -0.0198488
                  CHANNELS 3 Zrotation Xrotation Yrotation
                  End Site
                  {
                    OFFSET -2.33842 -0.294052 0.168128
                  }
                }
              }
              JOINT rPinky1
              {
                OFFSET -8.27202 -0.0477905 -0.4584
                CHANNELS 3 Zrotation Xrotation Yrotation
                JOINT rPinky2
                {
                  OFFSET -1.82734 -0.647385 -0.700984
                  CHANNELS 3 Zrotation Xrotation Yrotation
                  End Site
                  {
                    OFFSET -1.69225 -0.51767 -0.607171
                  }
                }
              }
            }
          }
        }
      }
      JOINT lCollar
      {
        OFFSET 2.68224 19.2634 -4.8768
        CHANNELS 3 Zrotation Xrotation Yrotation
        JOINT lShldr
        {
          OFFSET 8.77824 -1.95073 1.46304
          CHANNELS 3 Zrotation Xrotation Yrotation
          JOINT lForeArm
          {
            OFFSET 28.1742 -1.7115 0.48768
            CHANNELS 3 Zrotation Xrotation Yrotation
            JOINT lHand
            {
              OFFSET 22.5879 0.773209 7.07136
              CHANNELS 3 Zrotation Xrotation Yrotation
              JOINT lThumb1
              {
                OFFSET 1.2192 -0.487915 3.41376
                CHANNELS 3 Zrotation Xrotation Yrotation
                JOINT lThumb2
                {
                  OFFSET 3.37035 -0.52449 3.41376
                  CHANNELS 3 Zrotation Xrotation Yrotation
                  End Site
                  {
                    OFFSET 1.78271 -1.18214 1.43049
                  }
                }
              }
              JOINT lIndex1
              {
                OFFSET 7.75947 0.938293 5.60832
                CHANNELS 3 Zrotation Xrotation Yrotation
                JOINT lIndex2
                {
                  OFFSET 2.54057 -0.884171 1.56538
                  CHANNELS 3 Zrotation Xrotation Yrotation
                  End Site
                  {
                    OFFSET 1.62519 -0.234802 1.16502
                  }
                }
              }
              JOINT lMid1
              {
                OFFSET 8.24714 1.18213 3.41376
                CHANNELS 3 Zrotation Xrotation Yrotation
                JOINT lMid2
                {
                  OFFSET 3.10165 -0.590103 1.0647
                  CHANNELS 3 Zrotation Xrotation Yrotation
                  End Site
                  {
                    OFFSET 2.48547 -0.328903 0.83742
                  }
                }
              }
              JOINT lRing1
              {
                OFFSET 8.82822 0.546677 1.51678
                CHANNELS 3 Zrotation Xrotation Yrotation
                JOINT lRing2
                {
                  OFFSET 2.60934 -0.819778 -0.0198488
                  CHANNELS 3 Zrotation Xrotation Yrotation
                  End Site
                  {
                    OFFSET 2.33842 -0.294052 0.168128
                  }
                }
              }
              JOINT lPinky1
              {
                OFFSET 8.27202 -0.0477905 -0.4584
                CHANNELS 3 Zrotation Xrotation Yrotation
                JOINT lPinky2
                {
                  OFFSET 1.82734 -0.647385 -0.700984
                  CHANNELS 3 Zrotation Xrotation Yrotation
                  End Site
                  {
                    OFFSET 1.69225 -0.51767 -0.607171
                  }
                }
              }
            }
          }
        }
      }
    }
  }
  JOINT rButtock
  {
    OFFSET -8.77824 4.35084 1.2192
    CHANNELS 3 Zrotation Xrotation Yrotation
    JOINT rThigh
    {
      OFFSET 0 -1.70687 -2.19456
      CHANNELS 3 Zrotation Xrotation Yrotation
      JOINT rShin
      {
        OFFSET 0 -36.8199 0.73152
        CHANNELS 3 Zrotation Xrotation Yrotation
        JOINT rFoot
        {
          OFFSET 0.73152 -45.1104 -5.12064
          CHANNELS 3 Zrotation Xrotation Yrotation
          End Site
          {
            OFFSET -1.1221 -3.69964 12.103
          }
        }
      }
    }
  }
  JOINT lButtock
  {
    OFFSET 8.77824 4.35084 1.2192
    CHANNELS 3 Zrotation Xrotation Yrotation
    JOINT lThigh
    {
      OFFSET 0 -1.70687 -2.19456
      CHANNELS 3 Zrotation Xrotation Yrotation
      JOINT lShin
      {
        OFFSET 0 -36.8199 0.73152
        CHANNELS 3 Zrotation Xrotation Yrotation
        JOINT lFoot
        {
          OFFSET -0.73152 -45.1104 -5.12064
          CHANNELS 3 Zrotation Xrotation Yrotation
          End Site
          {
            OFFSET 1.1221 -3.69964 12.103
          }
        }
      }
    }
  }
}
MOTION
Frames:	7
Frame Time:	0.00833333
9.10149 85.0114 -83.8733 -0.0194627 1.35392e-005 0.00033538 0.0256061 -6.19127e-006 0.000728832 0.00706472 8.6321e-006 0.00122381 4.04809e-016 0 7.76502e-018 1.20824e-015 3.18055e-015 2.17421e-017 -0 0 0 -0 0 0 2.47161e-016 -3.88251e-019 1.49089e-016 6.33481e-015 -3.72721e-017 7.95139e-016 7.37491e-014 -2.34566e-014 0 8.37672e-013 1.60519e-014 1.90833e-014 1.97481e-012 -1.50485e-014 3.18055e-014 3.4016e-012 -2.8625e-014 6.04305e-014 1.97751e-012 -1.47101e-014 2.22639e-014 7.73091 5.47488 0.417314 1.97468e-012 -1.51076e-014 3.81667e-014 2.90554 0.965183 0.102902 1.98007e-012 -1.51076e-014 3.89618e-014 10.2786 0.731801 0.0259123 1.96558e-012 -1.27222e-014 5.40694e-014 2.22167 -0.733487 -0.20892 1.50422e-016 -3.88251e-019 -1.49089e-016 2.41599e-015 6.21202e-017 -7.95139e-016 7.22582e-014 2.22639e-014 -6.36111e-015 8.37144e-013 -2.22887e-014 2.8625e-014 1.97495e-012 -1.396e-016 4.13472e-014 3.42943e-012 6.36111e-015 7.4743e-014 1.97115e-012 7.95139e-016 5.40694e-014 -7.73091 5.47488 -0.417314 1.97592e-012 -9.93923e-017 3.81667e-014 -2.90554 0.965183 -0.102902 1.97386e-012 -3.97569e-016 3.89618e-014 -10.2786 0.731801 -0.0259123 1.99103e-012 4.77083e-015 2.8625e-014 -2.22167 -0.733487 0.20892 -2.03217e-016 0 -3.88251e-019 0.512306 -3.13364 -0.0420887 -0.00562807 0.123098 -0.0495528 -0.492806 3.00963 0.117361 2.03217e-016 0 3.88251e-019 -0.473318 -3.03453 0.0397102 0.00592193 -0.0564344 0.0521746 0.492498 3.09005 -0.118955 
8.85258 83.6281 -85.1563 0.222454 1.41619 -1.37694 -0.231761 1.62408 -0.563899 1.01133 -0.948811 -0.134532 -2.49472 0.0712842 -0.613139 1.42623 2.03595 -0.638712 -0 0 0 -0 0 0 3.94223e-015 -1.2058e-014 7.54023e-015 21.8195 4.97566 -0.80648 -4.87713 -2.36474 7.44932 0.00184353 0.959722 0.134814 -2.53763e-010 9.53792e-011 1.86509e-010 -4.37604e-010 1.65146e-010 3.23955e-010 -2.53759e-010 9.53789e-011 1.865e-010 7.73091 5.47488 0.417314 -2.53764e-010 9.53785e-011 1.86516e-010 2.90554 0.965183 0.102902 -2.53757e-010 9.53789e-011 1.86516e-010 10.2786 0.731801 0.0259123 -2.5377e-010 9.53805e-011 1.86529e-010 2.22167 -0.733487 -0.20892 3.82927e-015 -1.2058e-014 7.27156e-015 -22.775 4.90289 -0.226341 4.35791 -2.00822 -6.77604 -0.00379361 1.38175 -0.193998 -3.31561e-010 -4.87638e-010 -4.04226e-010 -5.76072e-010 -8.44434e-010 -6.97425e-010 -3.31563e-010 -4.87637e-010 -4.04217e-010 -7.73091 5.47488 -0.417314 -3.31559e-010 -4.87637e-010 -4.0423e-010 -2.90554 0.965183 -0.102902 -3.31564e-010 -4.87637e-010 -4.0423e-010 -10.2786 0.731801 -0.0259123 -3.31549e-010 -4.87633e-010 -4.04239e-010 -2.22167 -0.733487 0.20892 -2.03217e-016 0 -3.88251e-019 0.0914911 -6.81589 1.45495 -0.00118603 6.27303 0.0489819 -0.632294 0.568383 -2.30253 2.03217e-016 0 3.88251e-019 -1.40269 -6.65618 0.31207 0.00104331 5.83884 -0.0421821 0.546157 0.0727977 0.787095 
8.78972 83.6925 -85.1994 0.553766 2.90779 -2.83483 -0.476694 3.34013 -1.16992 2.07498 -1.94896 -0.280343 -5.13225 0.139735 -1.26347 2.98572 4.19411 -1.31982 -0 0 0 -0 0 0 8.33975e-015 -2.57929e-014 1.40361e-014 45.0419 10.2443 -1.67715 -9.37379 -4.73407 15.37 -0.00112551 1.96064 0.275544 -5.32775e-010 1.76044e-010 4.02703e-010 -9.18669e-010 3.04823e-010 6.99378e-010 -5.3277e-010 1.76043e-010 4.02693e-010 7.73091 5.47488 0.417314 -5.32776e-010 1.76043e-010 4.0271e-010 2.90554 0.965183 0.102902 -5.32768e-010 1.76043e-010 4.0271e-010 10.2786 0.731801 0.0259123 -5.3278e-010 1.76044e-010 4.0272e-010 2.22167 -0.733487 -0.20892 8.20962e-015 -2.57929e-014 1.38e-014 -46.8105 10.0991 -0.475212 8.44414 -4.0316 -13.9535 0.00240296 2.81862 -0.39612 -6.92989e-010 -1.0297e-009 -8.68679e-010 -1.20421e-009 -1.78323e-009 -1.4989e-009 -6.92989e-010 -1.0297e-009 -8.68674e-010 -7.73091 5.47488 -0.417314 -6.92986e-010 -1.0297e-009 -8.68683e-010 -2.90554 0.965183 -0.102902 -6.92993e-010 -1.0297e-009 -8.68684e-010 -10.2786 0.731801 -0.0259123 -6.92981e-010 -1.0297e-009 -8.68691e-010 -2.22167 -0.733487 0.20892 -2.03217e-016 0 -3.88251e-019 -0.142858 -10.6982 3.06758 -0.0200359 12.7819 0.156566 -1.00453 -2.00753 -4.8673 2.03217e-016 0 3.88251e-019 -2.34757 -10.483 0.620573 0.0173629 12.0722 -0.144676 0.705019 -3.12109 1.73162 
8.72999 83.7033 -85.2727 0.91082 4.2387 -4.14157 -0.650184 4.87037 -1.69861 3.00637 -2.84639 -0.40649 -7.47959 0.213755 -1.83943 4.4155 6.1048 -1.92585 -0 0 0 -0 0 0 1.13324e-014 -3.61733e-014 2.23225e-014 65.891 14.9149 -2.49441 -12.8284 -6.61558 22.4866 -0.00803289 2.8791 0.404895 -7.65238e-010 2.86168e-010 5.59465e-010 -1.31962e-009 4.95496e-010 9.71743e-010 -7.65232e-010 2.86166e-010 5.59455e-010 7.73091 5.47488 0.417314 -7.6524e-010 2.86166e-010 5.59471e-010 2.90554 0.965183 0.102902 -7.65232e-010 2.86167e-010 5.59471e-010 10.2786 0.731801 0.0259123 -7.65242e-010 2.86167e-010 5.59479e-010 2.22167 -0.733487 -0.20892 1.1187e-014 -3.61733e-014 2.21129e-014 -68.2053 14.7077 -0.699458 11.6761 -5.68832 -20.4206 0.0167522 4.14507 -0.583349 -9.98634e-010 -1.46291e-009 -1.21276e-009 -1.73507e-009 -2.53331e-009 -2.09242e-009 -9.98632e-010 -1.46291e-009 -1.21276e-009 -7.73091 5.47488 -0.417314 -9.9863e-010 -1.46291e-009 -1.21277e-009 -2.90554 0.965183 -0.102902 -9.98639e-010 -1.46291e-009 -1.21277e-009 -10.2786 0.731801 -0.0259123 -9.9863e-010 -1.46291e-009 -1.21277e-009 -2.22167 -0.733487 0.20892 -2.03217e-016 0 -3.88251e-019 -0.157252 -14.1439 4.55645 -0.0584127 18.5727 0.258642 -1.52933 -4.27923 -7.16173 2.03217e-016 0 3.88251e-019 -3.15525 -13.8982 0.876246 0.0516811 17.6293 -0.241585 0.940598 -5.95555 2.61296 
8.64527 83.7665 -85.3334 1.18866 5.17716 -5.06098 -0.715188 5.938 -2.0286 3.61694 -3.48707 -0.48304 -9.10405 0.301771 -2.22943 5.42244 7.39978 -2.33466 -0 0 0 -0 0 0 1.08127e-014 -3.81674e-014 3.50855e-014 80.4972 18.1017 -3.10653 -14.9376 -7.73643 27.4603 -0.0158457 3.59146 0.505415 -8.81332e-010 4.69938e-010 5.67646e-010 -1.52027e-009 8.13656e-010 9.86461e-010 -8.81325e-010 4.69936e-010 5.67637e-010 7.73091 5.47488 0.417314 -8.81334e-010 4.69936e-010 5.67653e-010 2.90554 0.965183 0.102902 -8.81326e-010 4.69937e-010 5.67652e-010 10.2786 0.731801 0.0259123 -8.81334e-010 4.69937e-010 5.67659e-010 2.22167 -0.733487 -0.20892 1.06568e-014 -3.81674e-014 3.48867e-014 -83.088 17.8486 -0.841621 13.7363 -6.7436 -25.0251 0.0332223 5.1956 -0.732222 -1.16482e-009 -1.62399e-009 -1.25592e-009 -2.02274e-009 -2.81162e-009 -2.16606e-009 -1.16482e-009 -1.62399e-009 -1.25592e-009 -7.73091 5.47488 -0.417314 -1.16482e-009 -1.62399e-009 -1.25592e-009 -2.90554 0.965183 -0.102902 -1.16483e-009 -1.62399e-009 -1.25592e-009 -10.2786 0.731801 -0.0259123 -1.16482e-009 -1.62399e-009 -1.25593e-009 -2.22167 -0.733487 0.20892 -2.03217e-016 0 -3.88251e-019 -0.0439619 -16.5308 5.64144 -0.097726 22.5687 0.334492 -1.99664 -5.82832 -8.75329 2.03217e-016 0 3.88251e-019 -3.70508 -16.286 0.980642 0.0876175 21.4959 -0.313962 1.17212 -7.89745 3.31976 
8.58452 83.7716 -85.3734 1.30094 5.57134 -5.42701 -0.663634 6.34963 -2.08031 3.77086 -3.7777 -0.491028 -9.71007 0.439707 -2.35211 5.79035 7.82025 -2.45272 -0 0 0 -0 0 0 4.02419e-015 -2.52527e-014 5.8028e-014 86.2329 19.2174 -3.4079 -15.6843 -8.11028 29.3718 -0.0210575 4.02362 0.566475 -8.13582e-010 8.12859e-010 3.07478e-010 -1.4047e-009 1.40734e-009 5.35968e-010 -8.13576e-010 8.12858e-010 3.07469e-010 7.73091 5.47488 0.417314 -8.13585e-010 8.12857e-010 3.07484e-010 2.90554 0.965183 0.102902 -8.13578e-010 8.12857e-010 3.07483e-010 10.2786 0.731801 0.0259123 -8.13585e-010 8.12858e-010 3.07489e-010 2.22167 -0.733487 -0.20892 3.86533e-015 -2.52526e-014 5.78172e-014 -88.894 18.9301 -0.831918 14.5658 -7.18019 -26.9863 0.0453167 5.91377 -0.834251 -1.11072e-009 -1.3195e-009 -7.83218e-010 -1.92596e-009 -2.28267e-009 -1.34844e-009 -1.11072e-009 -1.3195e-009 -7.83216e-010 -7.73091 5.47488 -0.417314 -1.11072e-009 -1.3195e-009 -7.83227e-010 -2.90554 0.965183 -0.102902 -1.11073e-009 -1.31949e-009 -7.83225e-010 -10.2786 0.731801 -0.0259123 -1.11072e-009 -1.31949e-009 -7.83233e-010 -2.22167 -0.733487 0.20892 -2.03217e-016 0 -3.88251e-019 0.0357022 -17.4492 6.09668 -0.114528 24.04 0.363619 -2.18756 -6.39284 -9.33182 2.03217e-016 0 3.88251e-019 -3.94992 -17.2252 0.84686 0.104496 22.9966 -0.343823 1.31038 -8.60286 3.77578 
8.55469 83.7163 -85.377 1.27918 5.57875 -5.396 -0.534649 6.29341 -1.93214 3.60009 -3.81786 -0.449905 -9.58992 0.611901 -2.28419 5.69305 7.61726 -2.36183 -0 0 0 -0 0 0 -7.17768e-015 -1.83959e-015 8.80554e-014 85.5942 18.8564 -3.47014 -15.5652 -8.03746 29.0786 -0.0233486 4.25527 0.599202 -6.15512e-010 1.26679e-009 -1.41495e-010 -1.06495e-009 2.19321e-009 -2.41841e-010 -6.15507e-010 1.26679e-009 -1.41504e-010 7.73091 5.47488 0.417314 -6.15515e-010 1.26679e-009 -1.41491e-010 2.90554 0.965183 0.102902 -6.15511e-010 1.26679e-009 -1.41492e-010 10.2786 0.731801 0.0259123 -6.15517e-010 1.26679e-009 -1.41485e-010 2.22167 -0.733487 -0.20892 -7.33408e-015 -1.83939e-015 8.78162e-014 -88.2238 18.5409 -0.711549 14.6084 -7.24043 -27.0454 0.0523792 6.392 -0.902238 -9.00458e-010 -6.86478e-010 5.34423e-011 -1.55666e-009 -1.18411e-009 9.80177e-011 -9.0046e-010 -6.86476e-010 5.34481e-011 -7.73091 5.47488 -0.417314 -9.00459e-010 -6.86483e-010 5.343e-011 -2.90554 0.965183 -0.102902 -9.00464e-010 -6.86477e-010 5.34346e-011 -10.2786 0.731801 -0.0259123 -9.00458e-010 -6.86478e-010 5.34231e-011 -2.22167 -0.733487 0.20892 -2.03217e-016 0 -3.88251e-019 0.0439371 -17.3258 6.08417 -0.109433 23.7084 0.356444 -2.13764 -6.2627 -9.17974 2.03217e-016 0 3.88251e-019 -3.97986 -17.1298 0.541774 0.102386 22.8075 -0.340714 1.35601 -8.4265 4.04704 
